#!OML:ASF H:\ManfredETheater\Project 1\Capture day 1\Session 1\subject.ASF
:FULLY-SPECIFIED
:DEGREES
124
root 3.2062 22.092 -8.92688 -184.958 -18.5202 -182.364
lowerback 20.0812 -0.360432 -1.10394
upperback 5.56754 -1.47775 0.429867
thorax -5.16339 -1.06205 1.4731
lowerneck -10.9577 -0.24006 -3.80804
upperneck 16.3513 0.470487 -2.91248
head 6.80713 -0.421138 -0.286402
rclavicle 7.62339e-014 -2.70347e-014
rhumerus -63.3639 13.6414 -27.7773
rradius 40.7623
rwrist -0.817597
rhand -23.0846 0.458183
rfingers 7.12502
rthumb 3.36137 -29.4951
lclavicle 7.62339e-014 -2.70347e-014
lhumerus -60.8831 -14.5235 25.1347
lradius 39.8045
lwrist -2.67973
lhand -25.3248 -7.15394
lfingers 7.12502
lthumb 1.19787 22.8224
rfemur -39.4894 -7.95037 14.3317
rtibia 43.5928
rfoot 11.1519 -5.69218
rtoes -20.6462
lfemur -38.9393 -6.63569 -10.8959
ltibia 40.1078
lfoot 7.2407 -3.98189
ltoes -14.0755
125
root 3.07203 21.7823 -9.3983 -185.565 -18.8289 -182.013
lowerback 19.3005 -0.473576 -1.08711
upperback 5.59728 -1.58942 0.451163
thorax -4.71977 -1.11214 1.48877
lowerneck -11.0418 -0.184618 -3.8166
upperneck 16.6299 0.529288 -2.78278
head 6.91064 -0.394071 -0.23978
rclavicle -1.60022e-014 -2.78299e-015
rhumerus -64.4245 14.1837 -27.1962
rradius 41.6626
rwrist -1.22576
rhand -23.0266 0.898703
rfingers 7.12502
rthumb 3.41745 -29.0537
lclavicle -1.60022e-014 -2.78299e-015
lhumerus -61.8216 -15.8334 24.6773
lradius 40.7801
lwrist -3.28445
lhand -25.2442 -7.43159
lfingers 7.12502
lthumb 1.27575 22.5443
rfemur -37.1181 -6.15101 13.7877
rtibia 41.4373
rfoot 13.1144 -5.72222
rtoes -19.6042
lfemur -37.6819 -6.79814 -11.0031
ltibia 39.8418
lfoot 7.8533 -3.58623
ltoes -14.0595
126
root 2.93631 21.4628 -9.86733 -186.139 -19.0864 -181.671
lowerback 18.5215 -0.550215 -1.0875
upperback 5.60717 -1.65373 0.48851
thorax -4.2976 -1.13769 1.519
lowerneck -11.0931 -0.1458 -3.85893
upperneck 16.8711 0.565978 -2.63913
head 6.99654 -0.376916 -0.184604
rclavicle -1.60022e-014 2.38542e-015
rhumerus -65.4557 14.5747 -26.7578
rradius 42.5358
rwrist -1.59609
rhand -22.998 1.32616
rfingers 7.12502
rthumb 3.445 -28.6258
lclavicle -1.60022e-014 2.38542e-015
lhumerus -62.6767 -16.7511 24.2442
lradius 41.7519
lwrist -3.61925
lhand -25.2141 -7.67771
lfingers 7.12502
lthumb 1.30478 22.298
rfemur -34.9182 -4.36004 13.3931
rtibia 39.6381
rfoot 14.9207 -5.63133
rtoes -18.5017
lfemur -36.4818 -6.81122 -11.1808
ltibia 39.6981
lfoot 8.46851 -3.3052
ltoes -13.7026
127
root 2.79898 21.1334 -10.3325 -186.673 -19.2997 -181.339
lowerback 17.7644 -0.590113 -1.0923
upperback 5.59661 -1.66855 0.543601
thorax -3.90819 -1.13776 1.55997
lowerneck -11.1474 -0.130811 -3.9428
upperneck 17.0902 0.574514 -2.47639
head 7.07604 -0.373022 -0.118681
rclavicle -2.24627e-014 -3.97569e-016
rhumerus -66.4519 14.7474 -26.442
rradius 43.3512
rwrist -1.92804
rhand -23.021 1.71246
rfingers 7.12502
rthumb 3.42285 -28.2398
lclavicle -2.24627e-014 -3.97569e-016
lhumerus -63.4333 -17.2875 23.8657
lradius 42.7203
lwrist -3.61716
lhand -25.2327 -7.87842
lfingers 7.12502
lthumb 1.28684 22.0974
rfemur -32.9038 -2.65287 13.1556
rtibia 38.2065
rfoot 16.5282 -5.51666
rtoes -17.0988
lfemur -35.3553 -6.66528 -11.4278
ltibia 39.6877
lfoot 9.03656 -3.21837
ltoes -13.06
128
root 2.65984 20.7945 -10.7924 -187.163 -19.4812 -181.025
lowerback 17.0452 -0.597514 -1.09484
upperback 5.56015 -1.63848 0.610668
thorax -3.5661 -1.11421 1.60477
lowerneck -11.22 -0.138562 -4.06345
upperneck 17.3105 0.555544 -2.28847
head 7.15943 -0.382111 -0.0409191
rclavicle -1.22253e-014 4.37326e-015
rhumerus -67.4108 14.658 -26.2386
rradius 44.0714
rwrist -2.23833
rhand -23.0971 2.04654
rfingers 7.12502
rthumb 3.34931 -27.9069
lclavicle -1.22253e-014 4.37326e-015
lhumerus -64.0963 -17.4793 23.5688
lradius 43.6849
lwrist -3.27477
lhand -25.2529 -8.01046
lfingers 7.12502
lthumb 1.26727 21.9655
rfemur -31.0737 -1.1178 13.0723
rtibia 37.1446
rfoot 17.9921 -5.34029
rtoes -15.6549
lfemur -34.3099 -6.36069 -11.7508
ltibia 39.8211
lfoot 9.50584 -3.37968
ltoes -12.3008
129
root 2.51897 20.4458 -11.2461 -187.606 -19.6405 -180.73
lowerback 16.3805 -0.578271 -1.08763
upperback 5.49062 -1.57007 0.683117
thorax -3.28788 -1.06968 1.64527
lowerneck -11.3108 -0.16772 -4.20161
upperneck 17.5378 0.508232 -2.08045
head 7.24878 -0.403921 0.043752
rclavicle -3.01159e-014 1.0138e-014
rhumerus -68.3353 14.2941 -26.1634
rradius 44.6779
rwrist -2.58727
rhand -23.2206 2.31591
rfingers 7.12502
rthumb 3.23009 -27.6394
lclavicle -3.01159e-014 1.0138e-014
lhumerus -64.6894 -17.3744 23.3826
lradius 44.6424
lwrist -2.67129
lhand -25.2836 -8.11949
lfingers 7.12502
lthumb 1.23764 21.8567
rfemur -29.4297 0.179462 13.1327
rtibia 36.4453
rfoot 19.3557 -5.14372
rtoes -14.1378
lfemur -33.3567 -5.90087 -12.1456
ltibia 40.1076
lfoot 9.82745 -3.81642
ltoes -11.635
130
root 2.37688 20.0872 -11.6929 -188.003 -19.7772 -180.452
lowerback 15.7849 -0.534863 -1.06853
upperback 5.3854 -1.46691 0.75632
thorax -3.08435 -1.00586 1.6773
lowerneck -11.4199 -0.21633 -4.3485
upperneck 17.7703 0.432696 -1.8457
head 7.34364 -0.436867 0.136078
rclavicle 3.97569e-016 7.55382e-015
rhumerus -69.217 13.6521 -26.2306
rradius 45.1491
rwrist -3.00777
rhand -23.3672 2.52722
rfingers 7.12502
rthumb 3.08851 -27.4302
lclavicle 3.97569e-016 7.55382e-015
lhumerus -65.2327 -17.0199 23.3361
lradius 45.5712
lwrist -1.92434
lhand -25.3303 -8.24163
lfingers 7.12502
lthumb 1.19259 21.7348
rfemur -27.9908 1.21583 13.3182
rtibia 36.1317
rfoot 20.6589 -4.89092
rtoes -12.7302
lfemur -32.5021 -5.29877 -12.5975
ltibia 40.5482
lfoot 9.98426 -4.51615
ltoes -11.1934
131
root 2.2343 19.7186 -12.1322 -188.35 -19.9084 -180.193
lowerback 15.2616 -0.475644 -1.04545
upperback 5.24664 -1.34196 0.824731
thorax -2.9546 -0.929422 1.7022
lowerneck -11.5594 -0.281156 -4.48753
upperneck 17.9996 0.332356 -1.58691
head 7.44356 -0.477666 0.232819
rclavicle 6.73383e-014 -1.17283e-014
rhumerus -70.0455 12.7475 -26.4698
rradius 45.4706
rwrist -3.53841
rhand -23.5281 2.71985
rfingers 7.12502
rthumb 2.93306 -27.2397
lclavicle 6.73383e-014 -1.17283e-014
lhumerus -65.7512 -16.4532 23.4544
lradius 46.4645
lwrist -1.15828
lhand -25.3816 -8.37825
lfingers 7.12502
lthumb 1.143 21.5984
rfemur -26.7705 1.99509 13.5904
rtibia 36.2397
rfoot 21.1204 -4.60199
rtoes -12.5895
lfemur -31.7555 -4.58118 -13.1008
ltibia 41.1387
lfoot 9.9902 -5.45669
ltoes -11.0822
132
root 2.09266 19.3405 -12.5628 -188.643 -20.0275 -179.948
lowerback 14.8127 -0.399859 -1.02069
upperback 5.07024 -1.19425 0.884065
thorax -2.90434 -0.839712 1.71665
lowerneck -11.7128 -0.358819 -4.58902
upperneck 18.2028 0.207999 -1.31832
head 7.5383 -0.524094 0.324581
rclavicle -1.15047e-014 -1.47101e-014
rhumerus -70.8209 11.6104 -26.9092
rradius 45.6345
rwrist -4.15486
rhand -23.6805 2.91711
rfingers 7.12502
rthumb 2.78594 -27.0444
lclavicle -1.15047e-014 -1.47101e-014
lhumerus -66.2576 -15.7321 23.7627
lradius 47.3076
lwrist -0.459193
lhand -25.4382 -8.55698
lfingers 7.12502
lthumb 1.08838 21.42
rfemur -25.7319 2.45158 13.9523
rtibia 36.8361
rfoot 20.3189 -4.10136
rtoes -14.8407
lfemur -31.1345 -3.79829 -13.6246
ltibia 41.8774
lfoot 9.74203 -6.48223
ltoes -12.0417
